<?xml version="1.0" encoding="UTF-8"?>
<!DOCTYPE svg PUBLIC "-//W3C//DTD SVG 1.1//EN" "http://www.w3.org/Graphics/SVG/1.1/DTD/svg11.dtd">
<!-- Creator: CorelDRAW X7 -->
<svg xmlns="http://www.w3.org/2000/svg" xml:space="preserve" width="7.5in" height="7.5in" version="1.1" style="shape-rendering:geometricPrecision; text-rendering:geometricPrecision; image-rendering:optimizeQuality; fill-rule:evenodd; clip-rule:evenodd" viewBox="0 0 7500 7500" xmlns:xlink="http://www.w3.org/1999/xlink">
 <defs>
  <style type="text/css">
   <![CDATA[
    .fil0 {fill:none}
    .fil1 {fill:#165098}
    .fil2 {fill:#5C9DD5}
   ]]>
  </style>
 </defs>
 <g id="Layer_x0020_1">
  <metadata id="CorelCorpID_0Corel-Layer"/>
  <rect class="fil0" width="7500" height="7500"/>
  <g id="_2117120822480">
   <g>
    <g>
     <path class="fil1" d="M1536 1348c-269,225 -547,503 -660,842 -130,399 52,807 226,1162 173,364 364,720 529,1093 130,295 312,642 269,972 -35,234 -113,459 -156,694 -35,156 113,0 165,-44 303,-260 633,-555 754,-954 61,-199 26,-382 -43,-573 -69,-182 -147,-355 -226,-538 -164,-364 -338,-728 -512,-1093 -69,-130 -139,-269 -199,-408 -61,-148 -97,-307 -104,-468 -9,-130 -9,-252 8,-382 9,-95 35,-182 44,-277 9,-52 -35,-70 -95,-26l0 0zm3973 0c-269,226 -547,503 -660,842 -130,399 52,807 226,1162 173,365 365,720 529,1093 131,295 313,642 269,972 -34,235 -112,460 -156,694 -34,156 113,0 165,-43 304,-260 633,-555 755,-955 60,-199 26,-381 -44,-572 -69,-182 -147,-356 -225,-538 -165,-365 -339,-729 -512,-1093 -70,-131 -139,-269 -200,-408 -61,-149 -96,-308 -104,-469 -9,-130 -9,-251 9,-381 8,-96 34,-182 43,-278 9,-52 -34,-70 -95,-26l0 0zm0 0l0 0 0 0z"/>
    </g>
    <path class="fil2" d="M3462 689c-304,251 -633,555 -816,910 -130,252 -148,512 -78,772 86,312 208,625 338,928 252,581 581,1128 824,1718 87,208 182,442 199,677 18,286 -78,590 -156,859 -17,78 -69,182 -60,260 8,60 43,35 78,9 149,-115 292,-241 425,-374 356,-338 764,-789 729,-1318 -17,-217 -121,-425 -208,-625 -95,-234 -199,-459 -303,-685 -191,-425 -391,-841 -599,-1258 -69,-147 -156,-286 -208,-434 -78,-199 -113,-407 -121,-615 -9,-156 0,-321 17,-477 8,-105 43,-200 43,-304 26,-96 -26,-104 -104,-44l0 0 0 1z"/>
   </g>
  </g>
 </g>
<script xmlns=""/></svg>